# Blender v2.79 (sub 0) OBJ File: ''
# www.blender.org
mtllib arrow.mtl
o Cone
v 0.000000 -0.100000 -2.900000
v 0.000000 -0.000000 -3.500000
v 0.019509 -0.098079 -2.900000
v 0.038268 -0.092388 -2.900000
v 0.055557 -0.083147 -2.900000
v 0.070711 -0.070711 -2.900000
v 0.083147 -0.055557 -2.900000
v 0.092388 -0.038268 -2.900000
v 0.098079 -0.019509 -2.900000
v 0.100000 0.000000 -2.900000
v 0.098079 0.019509 -2.900000
v 0.092388 0.038268 -2.900000
v 0.083147 0.055557 -2.900000
v 0.070711 0.070711 -2.900000
v 0.055557 0.083147 -2.900000
v 0.038268 0.092388 -2.900000
v 0.019509 0.098079 -2.900000
v -0.000000 0.100000 -2.900000
v -0.019509 0.098079 -2.900000
v -0.038268 0.092388 -2.900000
v -0.055557 0.083147 -2.900000
v -0.070711 0.070711 -2.900000
v -0.083147 0.055557 -2.900000
v -0.092388 0.038268 -2.900000
v -0.098079 0.019509 -2.900000
v -0.100000 -0.000000 -2.900000
v -0.098079 -0.019509 -2.900000
v -0.092388 -0.038268 -2.900000
v -0.083147 -0.055557 -2.900000
v -0.070711 -0.070711 -2.900000
v -0.055557 -0.083147 -2.900000
v -0.038268 -0.092388 -2.900000
v -0.019509 -0.098079 -2.900000
v 0.000000 0.033333 -3.000000
v 0.000000 0.033333 3.000001
v 0.006503 0.032693 -3.000000
v 0.006503 0.032693 3.000001
v 0.012756 0.030796 -3.000000
v 0.012756 0.030796 3.000001
v 0.018519 0.027716 -3.000000
v 0.018519 0.027716 3.000001
v 0.023570 0.023570 -3.000000
v 0.023570 0.023570 3.000001
v 0.027716 0.018519 -3.000000
v 0.027716 0.018519 3.000001
v 0.030796 0.012756 -3.000000
v 0.030796 0.012756 3.000001
v 0.032693 0.006503 -3.000000
v 0.032693 0.006503 3.000001
v 0.033333 0.000000 -3.000000
v 0.033333 0.000000 3.000001
v 0.032693 -0.006503 -3.000000
v 0.032693 -0.006503 3.000001
v 0.030796 -0.012756 -3.000000
v 0.030796 -0.012756 3.000001
v 0.027716 -0.018519 -3.000000
v 0.027716 -0.018519 3.000001
v 0.023570 -0.023570 -3.000000
v 0.023570 -0.023570 3.000001
v 0.018519 -0.027716 -3.000000
v 0.018519 -0.027716 3.000001
v 0.012756 -0.030796 -3.000000
v 0.012756 -0.030796 3.000001
v 0.006503 -0.032693 -3.000000
v 0.006503 -0.032693 3.000001
v -0.000000 -0.033333 -3.000000
v -0.000000 -0.033333 3.000001
v -0.006503 -0.032693 -3.000000
v -0.006503 -0.032693 3.000001
v -0.012756 -0.030796 -3.000000
v -0.012756 -0.030796 3.000001
v -0.018519 -0.027716 -3.000000
v -0.018519 -0.027716 3.000001
v -0.023570 -0.023570 -3.000000
v -0.023570 -0.023570 3.000001
v -0.027716 -0.018519 -3.000000
v -0.027716 -0.018519 3.000001
v -0.030796 -0.012756 -3.000000
v -0.030796 -0.012756 3.000001
v -0.032693 -0.006503 -3.000000
v -0.032693 -0.006503 3.000001
v -0.033333 0.000000 -3.000000
v -0.033333 0.000000 3.000001
v -0.032693 0.006503 -3.000000
v -0.032693 0.006503 3.000001
v -0.030796 0.012756 -3.000000
v -0.030796 0.012756 3.000001
v -0.027716 0.018519 -3.000000
v -0.027716 0.018519 3.000001
v -0.023570 0.023570 -3.000000
v -0.023570 0.023570 3.000001
v -0.018519 0.027716 -3.000000
v -0.018519 0.027716 3.000001
v -0.012756 0.030796 -3.000000
v -0.012756 0.030796 3.000001
v -0.006503 0.032693 -3.000000
v -0.006503 0.032693 3.000001
vn 0.0967 -0.9818 -0.1636
vn 0.2864 -0.9440 -0.1636
vn 0.4650 -0.8700 -0.1636
vn 0.6258 -0.7626 -0.1636
vn 0.7626 -0.6258 -0.1636
vn 0.8700 -0.4650 -0.1636
vn 0.9440 -0.2864 -0.1636
vn 0.9818 -0.0967 -0.1636
vn 0.9818 0.0967 -0.1636
vn 0.9440 0.2864 -0.1636
vn 0.8700 0.4650 -0.1636
vn 0.7626 0.6258 -0.1636
vn 0.6258 0.7626 -0.1636
vn 0.4650 0.8700 -0.1636
vn 0.2864 0.9440 -0.1636
vn 0.0967 0.9818 -0.1636
vn -0.0967 0.9818 -0.1636
vn -0.2864 0.9440 -0.1636
vn -0.4650 0.8700 -0.1636
vn -0.6258 0.7626 -0.1636
vn -0.7626 0.6258 -0.1636
vn -0.8700 0.4650 -0.1636
vn -0.9440 0.2864 -0.1636
vn -0.9818 0.0967 -0.1636
vn -0.9818 -0.0967 -0.1636
vn -0.9440 -0.2864 -0.1636
vn -0.8700 -0.4650 -0.1636
vn -0.7626 -0.6258 -0.1636
vn -0.6258 -0.7626 -0.1636
vn -0.4650 -0.8700 -0.1636
vn -0.2864 -0.9440 -0.1636
vn -0.0967 -0.9818 -0.1636
vn 0.0000 0.0000 1.0000
vn 0.0980 0.9952 0.0000
vn 0.2903 0.9569 0.0000
vn 0.4714 0.8819 0.0000
vn 0.6344 0.7730 0.0000
vn 0.7730 0.6344 0.0000
vn 0.8819 0.4714 0.0000
vn 0.9569 0.2903 0.0000
vn 0.9952 0.0980 0.0000
vn 0.9952 -0.0980 -0.0000
vn 0.9569 -0.2903 -0.0000
vn 0.8819 -0.4714 -0.0000
vn 0.7730 -0.6344 -0.0000
vn 0.6344 -0.7730 -0.0000
vn 0.4714 -0.8819 -0.0000
vn 0.2903 -0.9569 -0.0000
vn 0.0980 -0.9952 -0.0000
vn -0.0980 -0.9952 -0.0000
vn -0.2903 -0.9569 -0.0000
vn -0.4714 -0.8819 -0.0000
vn -0.6344 -0.7730 -0.0000
vn -0.7730 -0.6344 -0.0000
vn -0.8819 -0.4714 -0.0000
vn -0.9569 -0.2903 -0.0000
vn -0.9952 -0.0980 -0.0000
vn -0.9952 0.0980 0.0000
vn -0.9569 0.2903 0.0000
vn -0.8819 0.4714 0.0000
vn -0.7730 0.6344 0.0000
vn -0.6344 0.7730 0.0000
vn -0.4714 0.8819 0.0000
vn -0.2903 0.9569 0.0000
vn -0.0980 0.9952 0.0000
vn -0.0000 0.0000 -1.0000
usemtl None
s off
f 1//1 2//1 3//1
f 3//2 2//2 4//2
f 4//3 2//3 5//3
f 5//4 2//4 6//4
f 6//5 2//5 7//5
f 7//6 2//6 8//6
f 8//7 2//7 9//7
f 9//8 2//8 10//8
f 10//9 2//9 11//9
f 11//10 2//10 12//10
f 12//11 2//11 13//11
f 13//12 2//12 14//12
f 14//13 2//13 15//13
f 15//14 2//14 16//14
f 16//15 2//15 17//15
f 17//16 2//16 18//16
f 18//17 2//17 19//17
f 19//18 2//18 20//18
f 20//19 2//19 21//19
f 21//20 2//20 22//20
f 22//21 2//21 23//21
f 23//22 2//22 24//22
f 24//23 2//23 25//23
f 25//24 2//24 26//24
f 26//25 2//25 27//25
f 27//26 2//26 28//26
f 28//27 2//27 29//27
f 29//28 2//28 30//28
f 30//29 2//29 31//29
f 31//30 2//30 32//30
f 32//31 2//31 33//31
f 33//32 2//32 1//32
f 1//33 3//33 4//33 5//33 6//33 7//33 8//33 9//33 10//33 11//33 12//33 13//33 14//33 15//33 16//33 17//33 18//33 19//33 20//33 21//33 22//33 23//33 24//33 25//33 26//33 27//33 28//33 29//33 30//33 31//33 32//33 33//33
f 34//34 35//34 37//34 36//34
f 36//35 37//35 39//35 38//35
f 38//36 39//36 41//36 40//36
f 40//37 41//37 43//37 42//37
f 42//38 43//38 45//38 44//38
f 44//39 45//39 47//39 46//39
f 46//40 47//40 49//40 48//40
f 48//41 49//41 51//41 50//41
f 50//42 51//42 53//42 52//42
f 52//43 53//43 55//43 54//43
f 54//44 55//44 57//44 56//44
f 56//45 57//45 59//45 58//45
f 58//46 59//46 61//46 60//46
f 60//47 61//47 63//47 62//47
f 62//48 63//48 65//48 64//48
f 64//49 65//49 67//49 66//49
f 66//50 67//50 69//50 68//50
f 68//51 69//51 71//51 70//51
f 70//52 71//52 73//52 72//52
f 72//53 73//53 75//53 74//53
f 74//54 75//54 77//54 76//54
f 76//55 77//55 79//55 78//55
f 78//56 79//56 81//56 80//56
f 80//57 81//57 83//57 82//57
f 82//58 83//58 85//58 84//58
f 84//59 85//59 87//59 86//59
f 86//60 87//60 89//60 88//60
f 88//61 89//61 91//61 90//61
f 90//62 91//62 93//62 92//62
f 92//63 93//63 95//63 94//63
f 37//33 35//33 97//33 95//33 93//33 91//33 89//33 87//33 85//33 83//33 81//33 79//33 77//33 75//33 73//33 71//33 69//33 67//33 65//33 63//33 61//33 59//33 57//33 55//33 53//33 51//33 49//33 47//33 45//33 43//33 41//33 39//33
f 94//64 95//64 97//64 96//64
f 96//65 97//65 35//65 34//65
f 34//66 36//66 38//66 40//66 42//66 44//66 46//66 48//66 50//66 52//66 54//66 56//66 58//66 60//66 62//66 64//66 66//66 68//66 70//66 72//66 74//66 76//66 78//66 80//66 82//66 84//66 86//66 88//66 90//66 92//66 94//66 96//66
